<svg xmlns="http://www.w3.org/2000/svg" version="1.1" xmlns:xlink="http://www.w3.org/1999/xlink" xmlns:svgjs="http://svgjs.com/svgjs" width="512" height="512" x="0" y="0" viewBox="0 0 128 128" style="enable-background:new 0 0 512 512" xml:space="preserve" class=""><g><g xmlns="http://www.w3.org/2000/svg"><path id="_x35_" d="m112.33 23.72c-2.324 1.871-4.846 3.515-7.512 4.876 1.984 6.009 3.203 13.067 3.402 20.636h15.732c-.51-9.779-4.678-18.567-11.168-25.059-.141-.142-.311-.312-.454-.453zm11.623 29.509h-15.732c-.17 7.285-1.332 14.088-3.203 19.955-.057.228-.143.454-.227.681 2.693 1.36 5.215 3.005 7.539 4.876 2.381-2.297 4.479-4.933 6.18-7.768 3.176-5.244 5.103-11.282 5.443-17.744zm-14.683 28.175c-1.842-1.445-3.799-2.692-5.867-3.798-1.984 4.705-4.508 8.589-7.371 11.31-.793.766-2.041.737-2.807-.057s-.736-2.069.057-2.834c2.523-2.382 4.707-5.812 6.492-10.063-.17-.057-.34-.113-.51-.198-3.602-1.36-7.484-2.183-11.537-2.381v.538c0 1.105-.879 2.013-1.984 2.013s-2.014-.907-2.014-2.013v-2.607-18.085h-9.383c-1.105 0-1.984-.907-1.984-2.013s.879-1.984 1.984-1.984h9.383v-16.129c-3.146-.17-6.236-.652-9.184-1.475-1.445-.396-2.834-.85-4.195-1.389-1.984 6.038-3.117 13.238-3.117 20.977 0 1.105-.908 2.013-2.014 2.013-1.077 0-1.984-.907-1.984-2.013 0-8.334 1.275-16.101 3.429-22.62-.85-.454-1.672-.907-2.494-1.39-.963-.566-1.275-1.785-.708-2.721.567-.964 1.787-1.276 2.722-.709.623.368 1.246.737 1.898 1.049.426-1.021.879-2.013 1.389-2.977 1.389-2.777 3.033-5.188 4.818-7.144-3.316 1.049-6.434 2.523-9.297 4.366-.936.595-2.154.312-2.75-.596-.595-.936-.34-2.183.595-2.778 3.346-2.154 7.029-3.854 10.941-5.017 3.799-1.105 7.824-1.701 11.963-1.701 11.678 0 22.223 4.705 29.877 12.359 7.652 7.653 12.387 18.227 12.387 29.877 0 7.993-2.211 15.448-6.066 21.798-3.969 6.576-9.666 11.991-16.496 15.591-.992.538-2.184.142-2.693-.822s-.143-2.183.822-2.692c1.729-.906 6.067-3.826 5.698-3.685zm-12.077-66.699c1.787 1.956 3.402 4.366 4.818 7.144.482.964.936 1.956 1.391 2.977 2.068-1.077 4.025-2.353 5.867-3.771-3.572-2.778-7.654-4.96-12.076-6.35zm3.942 57.515.084-.227c1.758-5.471 2.834-11.877 3.006-18.765h-16.498v16.129c4.535.227 8.9 1.162 12.953 2.692.17.057.312.114.455.171zm3.09-22.989c-.172-7.002-1.277-13.465-3.09-18.992-.143.057-.313.113-.455.17-4.053 1.531-8.418 2.467-12.953 2.693v16.129zm-16.498-36.028v15.874c4.053-.198 7.936-1.049 11.537-2.409.17-.057.34-.113.48-.17-.396-.992-.822-1.928-1.275-2.835-2.92-5.698-6.66-9.496-10.742-10.46zm-3.998 15.874v-15.874c-4.082.964-7.822 4.762-10.715 10.46-.453.907-.879 1.843-1.303 2.835 1.275.481 2.551.935 3.883 1.275 2.607.737 5.328 1.163 8.135 1.304z" fill="#ea580cff" data-original="#000000"></path><path id="_x34_" d="m24.684 57.452 4.025 12.67 7.71-5.612-8.646-9.723zm4.818-6.747 9.864 11.112 9.836-11.112.028-.028c.708-.85 1.984-.936 2.806-.198l5.358 4.621 12.841 5.612c2.664 1.162 4.762 3.005 6.207 5.272 1.475 2.324 2.268 5.045 2.268 7.937v7.285c0 1.105-.906 2.013-2.012 2.013-1.078 0-1.984-.907-1.984-2.013v-7.285c0-2.154-.566-4.139-1.615-5.782-1.049-1.616-2.551-2.92-4.451-3.771l-11.111-4.847-4.592 14.456c-.397 1.304-1.984 1.786-3.062.992l-8.532-6.208v13.946c0 1.105-.878 2.013-1.984 2.013-1.105 0-2.012-.907-2.012-2.013v-13.945l-8.504 6.208s-.539.283-.595.283c-1.049.341-2.155-.227-2.495-1.275l-4.592-14.456-11.112 4.847c-1.899.851-3.401 2.154-4.422 3.771-1.077 1.644-1.644 3.628-1.644 5.782v32.995c0 1.105-.879 2.013-1.984 2.013s-2.013-.907-2.013-2.013v-32.996c0-2.892.794-5.612 2.268-7.937 1.446-2.268 3.572-4.11 6.208-5.272l12.84-5.612 5.357-4.621c.822-.737 2.098-.651 2.807.198zm-14.06 38.608c0-1.105.907-1.984 1.984-1.984 1.105 0 2.013.879 2.013 1.984v17.603c0 1.105-.907 2.013-2.013 2.013-1.077 0-1.984-.907-1.984-2.013zm35.49-34.526-8.646 9.723 7.71 5.612 4.025-12.67z" fill="#ea580cff" data-original="#000000"></path><path id="_x33_" d="m83.332 86.054h-44.333c-1.701 0-3.345 1.474-3.628 3.117l-5.613 31.919c-.283 1.615.681 2.919 2.381 2.919h43.341c1.984 0 3.883-1.7 4.223-3.628l5.586-31.89c.027-.142.057-.312.057-.482 0-1.191-.852-1.955-2.014-1.955zm-23.442 16.865c1.105 0 2.013.907 2.013 2.013s-.907 1.984-2.013 1.984-1.984-.879-1.984-1.984.878-2.013 1.984-2.013zm-20.891-20.862h44.333c.369 0 .736.028 1.105.113 2.92.51 4.904 2.92 4.904 5.839 0 .397-.057.766-.113 1.162l-5.584 31.919c-.682 3.798-4.281 6.916-8.164 6.916h-43.341c-3.628 0-6.406-2.749-6.406-6.378 0-.396.028-.794.085-1.247l5.612-31.89c.624-3.543 3.968-6.434 7.569-6.434z" fill="#ea580cff" data-original="#000000"></path><path id="_x32_" d="m28.624 114.031c1.105 0 2.013.879 2.013 1.984 0 .142-.028.283-.057.425l-.822 4.649c-.028.17-.028.368-.028.538 0 .624.17 1.162.51 1.56.312.396.794.651 1.389.765.142.028.312.028.482.057l.028 3.997h-18.738c-1.304 0-2.636-.368-3.713-1.077s-1.899-1.729-2.239-3.09l-1.814-7.342c-.255-1.077.397-2.154 1.474-2.409.142-.057.312-.057.481-.057zm-2.381 3.997h-16.13l1.219 4.875c.057.284.255.511.539.681.425.283.963.425 1.53.425h12.756c-.284-.736-.425-1.53-.425-2.381 0-.396.028-.794.085-1.247z" fill="#ea580cff" data-original="#000000"></path><path id="_x31_" d="m30.636 47.077-.68 5.159c-.17 1.105-1.162 1.871-2.24 1.729-1.105-.17-1.871-1.162-1.729-2.268l1.049-7.653-.51-.453c-1.899-1.673-3.345-3.686-4.309-5.953-.992-2.268-1.474-4.762-1.474-7.427v-12.104c0-5.414 1.871-9.922 5.159-13.125 3.26-3.175 7.909-4.988 13.464-4.988 5.528 0 10.177 1.813 13.437 4.988 3.288 3.203 5.159 7.711 5.159 13.125v12.104c0 2.551-.454 5.074-1.474 7.427-.964 2.268-2.41 4.28-4.309 5.953l-.51.453 1.049 7.653c.142 1.105-.624 2.098-1.701 2.268-1.105.143-2.097-.623-2.239-1.729l-.708-5.159c-.907.624-1.814 1.105-2.778 1.474-3.317 1.305-8.561 1.305-11.877 0-.965-.368-1.872-.85-2.779-1.474zm-5.839-30.274c2.069.681 6.52 1.305 8.816-4.337.425-1.021 1.587-1.502 2.608-1.077.567.227.878.624 1.105 1.162.028.028 3.657 10.432 16.639 7.172v-1.615c0-4.28-1.417-7.824-3.94-10.262-2.523-2.466-6.208-3.856-10.658-3.856-4.479 0-8.164 1.39-10.687 3.855-2.239 2.183-3.628 5.245-3.883 8.958zm29.168 7.03c-10.403 2.268-15.959-2.807-18.539-6.491-3.26 4.394-7.767 4.28-10.687 3.571v9.298c0 2.126.397 4.11 1.134 5.84.737 1.729 1.842 3.288 3.316 4.563l2.41 2.154c1.049.936 2.126 1.615 3.288 2.069 2.324.936 6.605.936 8.929 0 1.162-.454 2.239-1.134 3.316-2.069l2.41-2.154c1.445-1.275 2.466-2.665 3.203-4.394.85-1.843 1.219-3.997 1.219-6.01v-6.377z" fill="#ea580cff" data-original="#000000"></path></g></g></svg>