<svg xmlns="http://www.w3.org/2000/svg" version="1.1" xmlns:xlink="http://www.w3.org/1999/xlink" xmlns:svgjs="http://svgjs.com/svgjs" width="512" height="512" x="0" y="0" viewBox="0 0 60 60" style="enable-background:new 0 0 512 512" xml:space="preserve" class=""><g><g xmlns="http://www.w3.org/2000/svg" id="Page-1" fill="none" fill-rule="evenodd"><g id="059---Money-Bag" fill="rgb(0,0,0)" fill-rule="nonzero" transform="translate(0 -1)"><path id="Shape" d="m54.135 47.653c1.1851892-1.6296647 1.8275238-3.5909544 1.836-5.606.0127714-.2649617-.080257-.5241413-.2586124-.720501-.1783555-.1963598-.427422-.3138084-.6923876-.326499-.5495675-.0205295-1.0147453.4019959-1.047.951.0075252 1.5970082-.4844214 3.1564125-1.407 4.46-1.951 2.464-5.653 2.589-6.376 2.589-.5522847 0-1 .4477153-1 1s.4477153 1 1 1c.884 0 5.421-.161 7.945-3.347z" fill="#ea580cff" data-original="#000000"></path><path id="Shape" d="m34 35c0-.5522847-.4477153-1-1-1s-1 .4477153-1 1c0 2.209139 1.790861 4 4 4v1c0 .5522847.4477153 1 1 1s1-.4477153 1-1v-1c2.209139 0 4-1.790861 4-4s-1.790861-4-4-4v-4c1.1045695 0 2 .8954305 2 2 0 .5522847.4477153 1 1 1s1-.4477153 1-1c0-2.209139-1.790861-4-4-4v-1c0-.5522847-.4477153-1-1-1s-1 .4477153-1 1v1c-2.209139 0-4 1.790861-4 4s1.790861 4 4 4v4c-1.1045695 0-2-.8954305-2-2zm0-6c0-1.1045695.8954305-2 2-2v4c-1.1045695 0-2-.8954305-2-2zm4 4c1.1045695 0 2 .8954305 2 2s-.8954305 2-2 2z" fill="#ea580cff" data-original="#000000"></path><path id="Shape" d="m59.164 34.771c-2.464-10.471-7.942-16.538-11.898-19.707 4.961.374 6.558 2.438 6.605 2.5.3132922.4472337.9274202.5604625 1.3796069.2543627.4521868-.3060999.5752224-.9183386.2763931-1.3753627-.072-.108-1.461-2.092-5.5-3 1.0327774-.8490128 1.6437413-2.106364 1.673-3.443-.1337149-2.21605597-1.6764268-4.09522747-3.824-4.658.0880504-.72234421.132797-1.44931011.134-2.177-.0010742-.6704002-.3379636-1.29567216-.8972517-1.6653131-.5592881-.36964095-1.2665755-.43447937-1.8837483-.1726869-.5048568.22857548-.9737688.52939332-1.392.893-.490755.50432069-1.1663364.78611399-1.87.78-.7025562.00494474-1.3767675-.27672898-1.867-.78-1.7623456-1.62766106-4.4796544-1.62766106-6.242 0-.4908328.50541883-1.1675068.78736633-1.872.78-.7024391.00583749-1.376677-.27599831-1.866-.78-.4171447-.36282613-.8846704-.66328215-1.388-.892-.616755-.26003778-1.3227042-.1943139-1.8808565.17510774s-.8945053.99356152-.8961435 1.66289226c0 2.488.492 6.926 3.607 9.906-1.63707.9954475-3.165988 2.1587255-4.562 3.471v-7.543c0-2.28-3.225-4-7.5-4s-7.5 1.72-7.5 4v10.075c-3.507.35-6 1.925-6 3.925v25.435c-2.416.649-4 1.965-4 3.565v5c0 2.28 3.225 4 7.5 4 3.823 0 6.8-1.377 7.387-3.3 1.7261589.9139563 3.6607978 1.3620288 5.613 1.3 4.275 0 7.5-1.72 7.5-4v-13c0-2.28-3.225-4-7.5-4-.5009454-.0003351-1.0015865.024697-1.5.075v-15.075c0-2.19-2.977-3.858-7-3.987v-7.244c1.7012299.8646888 3.5924826 1.2879855 5.5 1.231 1.9075174.0569855 3.7987701-.3663112 5.5-1.231v6.82c-.659.737-1.321 1.54-1.974 2.43-.2990252.445283-.193493 1.0471811.2391837 1.3641731.4326766.316992 1.0383882.2361727 1.3728163-.1831731.642267-.8695025 1.3305836-1.704028 2.062-2.5.008-.009.015-.018.023-.026 1.908941-2.1215143 4.1506085-3.9180232 6.637-5.319.4902069.2364593 1.0087963.4088743 1.543.513l-2.578 2.406c-.4037201.3772105-.4252105 1.0102798-.048 1.414.3772105.4037201 1.0102798.4252105 1.414.048l4-3.731h.319v3c0 .5522847.4477153 1 1 1s1-.4477153 1-1v-3.005h.319l4 3.731c.2611611.2440124.6326631.3301613.9745646.2259954.3419015-.104166.6022596-.3828217.683-.731.0807403-.3481784-.0304035-.712983-.2915646-.9569954l-2.595-2.416c.5310027-.1050953 1.0462467-.2781877 1.533-.515 2.643 1.43 11.331 7.08 14.585 20.891 1.415 6.012.905 10.611-1.515 13.666-3.096 3.905-8.468 4.105-9.513 4.105h-14.19c-.5522847 0-1 .4477153-1 1s.4477153 1 1 1h14.19c1.7 0 7.505-.351 11.08-4.863 2.818-3.559 3.456-8.729 1.894-15.366zm-51.664 15.229c3.307 0 5.5 1.2 5.5 2s-2.193 2-5.5 2-5.5-1.2-5.5-2 2.193-2 5.5-2zm0 9c-3.307 0-5.5-1.2-5.5-2v-2.231c1.70122995.8646888 3.5924826 1.2879855 5.5 1.231 1.9075174.0569855 3.7987701-.3663112 5.5-1.231v2.231c0 .8-2.193 2-5.5 2zm13-2c-3.307 0-5.5-1.2-5.5-2v-10.231c1.7012299.8646888 3.5924826 1.2879855 5.5 1.231 1.9075174.0569855 3.7987701-.3663112 5.5-1.231v10.231c0 .8-2.193 2-5.5 2zm5.5-15c0 .8-2.193 2-5.5 2s-5.5-1.2-5.5-2 2.193-2 5.5-2 5.5 1.2 5.5 2zm-13 0v7.231c-1.7012299-.8646888-3.5924826-1.2879855-5.5-1.231-.50094542-.0003351-1.00158648.024697-1.5.075v-22.306c1.70122995.8646888 3.5924826 1.2879855 5.5 1.231 1.9075174.0569855 3.7987701-.3663112 5.5-1.231v12.666c-2.416.649-4 1.965-4 3.565zm4-19c0 .8-2.193 2-5.5 2s-5.5-1.2-5.5-2 2.193-2 5.5-2 5.5 1.2 5.5 2zm.5-12c-3.307 0-5.5-1.2-5.5-2s2.193-2 5.5-2 5.5 1.2 5.5 2-2.193 2-5.5 2zm32.2-1c0 1.639-1.775 2.984-4 3-.372166-.0023545-.742987-.0449352-1.106-.127 1.4513822-1.5484467 2.4601961-3.45832018 2.921-5.53 1.2037057.35466779 2.0694756 1.40745976 2.185 2.657zm-20.832-6.22c.8445081.79133617 1.9607007 1.22807609 3.118 1.22 1.1580078.00869278 2.2750454-.42809756 3.12-1.22.4943009-.49906005 1.1675796-.77983262 1.87-.77983262s1.3756991.28077257 1.87.77983262c.8449823.79249552 1.9625715 1.22936153 3.121 1.22 1.1583526.00894999 2.2757944-.42785839 3.121-1.22.277126-.24492313.5854745-.45205799.917-.616 0 1.857-.345 6.448-3.567 8.965-.7248626.5443964-1.6035782.8451202-2.51.859.8656839-1.486887 1.5508604-3.07175631 2.041-4.721.0957472-.34440403.0004839-.71372699-.2499052-.96884849-.250389-.2551215-.6178638-.35728253-.964-.268s-.6183476.35644446-.7140948.70084849c-.5538471 1.879763-1.4053057 3.6586431-2.522 5.269h-1.028c-1.1144846-1.6117791-1.9660791-3.3902379-2.523-5.269-.1482885-.53212635-.6998736-.84328843-1.232-.69499998-.5321263.14828845-.8432884.69987363-.695 1.23199998.4906109 1.65066414 1.1764605 3.2368802 2.043 4.725-.9245715-.0047456-1.8229903-.3073745-2.562-.863-3.222-2.516-3.567-7.107-3.567-8.958.3313843.15877018.6387399.3634495.913.608z" fill="#ea580cff" data-original="#000000"></path><path id="Shape" d="m54.135 47.653c1.1851892-1.6296647 1.8275238-3.5909544 1.836-5.606.0127714-.2649617-.080257-.5241413-.2586124-.720501-.1783555-.1963598-.427422-.3138084-.6923876-.326499-.5491739-.019453-1.0137115.4024909-1.047.951.0075252 1.5970082-.4844214 3.1564125-1.407 4.46-1.951 2.464-5.653 2.589-6.376 2.589-.5522847 0-1 .4477153-1 1s.4477153 1 1 1c.884 0 5.421-.161 7.945-3.347z" fill="#ea580cff" data-original="#000000"></path></g></g></g></svg>