<svg xmlns="http://www.w3.org/2000/svg" version="1.1" xmlns:xlink="http://www.w3.org/1999/xlink" xmlns:svgjs="http://svgjs.com/svgjs" width="512" height="512" x="0" y="0" viewBox="0 0 64 64" style="enable-background:new 0 0 512 512" xml:space="preserve" class=""><g><path xmlns="http://www.w3.org/2000/svg" d="M15,28a3,3,0,0,0,3,3H46a3,3,0,0,0,3-3V12a3,3,0,0,0-3-3H42.574A10.988,10.988,0,0,0,21.426,9H18a3,3,0,0,0-3,3ZM32,3a9,9,0,1,1-9,9A9.011,9.011,0,0,1,32,3ZM17,12a1,1,0,0,1,1-1h3.051c-.03.33-.051.662-.051,1a11,11,0,0,0,22,0c0-.338-.021-.67-.051-1H46a1,1,0,0,1,1,1V28a1,1,0,0,1-1,1H18a1,1,0,0,1-1-1Z" fill="#ea580cff" data-original="#000000" class=""></path><path xmlns="http://www.w3.org/2000/svg" d="M28.439,13.752l-.43,3.111A1,1,0,0,0,29.5,17.869L32,16.443l2.505,1.426a1,1,0,0,0,1.486-1.006l-.43-3.111,2.129-2.028a1,1,0,0,0-.489-1.7l-2.964-.608L32.905,6.575a1,1,0,0,0-1.81,0L29.763,9.413l-2.964.608a1,1,0,0,0-.489,1.7Zm2.217-2.481a1,1,0,0,0,.7-.554L32,9.354l.64,1.363a1,1,0,0,0,.7.554l1.581.325L33.81,12.658a1,1,0,0,0-.3.861l.222,1.608-1.236-.7a1,1,0,0,0-.99,0l-1.236.7.222-1.608a1,1,0,0,0-.3-.861L29.075,11.6Z" fill="#ea580cff" data-original="#000000" class=""></path><rect xmlns="http://www.w3.org/2000/svg" x="21" y="25" width="22" height="2" fill="#ea580cff" data-original="#000000" class=""></rect><path xmlns="http://www.w3.org/2000/svg" d="M1.757,8.97A7.083,7.083,0,0,1,6.6,13.2l.468,1.172a1,1,0,0,0,1.858,0L9.4,13.2a7.083,7.083,0,0,1,4.846-4.23,1,1,0,0,0,0-1.94A7.083,7.083,0,0,1,9.4,2.8L8.929,1.628a1,1,0,0,0-1.858,0L6.6,2.8A7.083,7.083,0,0,1,1.757,7.03a1,1,0,0,0,0,1.94ZM8,4.519A9.106,9.106,0,0,0,11.382,8,9.106,9.106,0,0,0,8,11.481,9.106,9.106,0,0,0,4.618,8,9.106,9.106,0,0,0,8,4.519Z" fill="#ea580cff" data-original="#000000" class=""></path><path xmlns="http://www.w3.org/2000/svg" d="M62.243,7.03A7.083,7.083,0,0,1,57.4,2.8l-.468-1.172a1,1,0,0,0-1.858,0L54.6,2.8a7.083,7.083,0,0,1-4.846,4.23,1,1,0,0,0,0,1.94A7.083,7.083,0,0,1,54.6,13.2l.468,1.172a1,1,0,0,0,1.858,0L57.4,13.2a7.083,7.083,0,0,1,4.846-4.23,1,1,0,0,0,0-1.94ZM56,11.481A9.106,9.106,0,0,0,52.618,8,9.106,9.106,0,0,0,56,4.519,9.106,9.106,0,0,0,59.382,8,9.106,9.106,0,0,0,56,11.481Z" fill="#ea580cff" data-original="#000000" class=""></path><path xmlns="http://www.w3.org/2000/svg" d="M13,53a1,1,0,0,0-1,1v8a1,1,0,0,0,1,1H29a1,1,0,0,0,1-1V54a1,1,0,0,0-1-1H28V49.142a10.927,10.927,0,0,0-3.222-7.778L17.414,34A3.5,3.5,0,0,0,13,33.666V26a5.006,5.006,0,0,0-5-5,3,3,0,0,0-3,3V40a1,1,0,0,0,.226.633L14,51.357V53Zm15,8H14V55H28ZM15.774,50.367,7,39.643V24a1,1,0,0,1,1-1,3,3,0,0,1,3,3v9.586l-.707.707a1,1,0,0,0,0,1.414l6,6,1.414-1.414L12.414,37,14,35.414a1.465,1.465,0,0,1,2,0l7.364,7.364A8.941,8.941,0,0,1,26,49.142V53H16V51A1,1,0,0,0,15.774,50.367Z" fill="#ea580cff" data-original="#000000" class=""></path><path xmlns="http://www.w3.org/2000/svg" d="M58.774,40.633A1,1,0,0,0,59,40V24a3,3,0,0,0-3-3,5.006,5.006,0,0,0-5,5v7.666A3.5,3.5,0,0,0,46.586,34l-7.364,7.364A10.927,10.927,0,0,0,36,49.142V53H35a1,1,0,0,0-1,1v8a1,1,0,0,0,1,1H51a1,1,0,0,0,1-1V54a1,1,0,0,0-1-1H50V51.357ZM50,61H36V55H50ZM38,53V49.142a8.941,8.941,0,0,1,2.636-6.364L48,35.414a1.465,1.465,0,0,1,2,0L51.586,37l-5.293,5.293,1.414,1.414,6-6a1,1,0,0,0,0-1.414L53,35.586V26a3,3,0,0,1,3-3,1,1,0,0,1,1,1V39.643L48.226,50.367A1,1,0,0,0,48,51v2Z" fill="#ea580cff" data-original="#000000" class=""></path></g></svg>